<?plantuml 1.2026.3beta3?><svg xmlns="http://www.w3.org/2000/svg" xmlns:xlink="http://www.w3.org/1999/xlink" contentStyleType="text/css" data-diagram-type="CLASS" height="1178px" preserveAspectRatio="none" style="width:1211px;height:1178px;background:#FFFFFF;" version="1.1" viewBox="0 0 1211 1178" width="1211px" zoomAndPan="magnify"><defs/><g><g class="title" data-source-line="5"><text fill="#000000" font-family="sans-serif" font-size="14" font-weight="bold" lengthAdjust="spacing" textLength="158.0605" x="523.2139" y="22.9951">knowledge_learning</text></g><!--class certification--><g class="entity" data-qualified-name="certification" data-source-line="7" id="ent0002"><rect fill="#F1F1F1" height="172.6719" rx="2.5" ry="2.5" style="stroke:#181818;stroke-width:0.5;" width="186.7607" x="992.57" y="268.8269"/><text fill="#000000" font-family="sans-serif" font-size="14" lengthAdjust="spacing" textLength="83.3574" x="1044.2717" y="286.822">certification</text><line style="stroke:#181818;stroke-width:0.5;" x1="993.57" x2="1178.3307" y1="295.1238" y2="295.1238"/><g data-visibility-modifier="IE_MANDATORY"><ellipse cx="1003.57" cy="308.7722" fill="#000000" rx="3" ry="3" style="stroke:#000000;stroke-width:1;"/></g><text fill="#000000" font-family="sans-serif" font-size="14" lengthAdjust="spacing" textLength="72.0645" x="1012.57" y="312.1189">id: integer</text><line style="stroke:#181818;stroke-width:1;" x1="993.57" x2="1178.3307" y1="319.4206" y2="319.4206"/><g data-visibility-modifier="IE_MANDATORY"><ellipse cx="1003.57" cy="333.0691" fill="#000000" rx="3" ry="3" style="stroke:#000000;stroke-width:1;"/></g><text fill="#000000" font-family="sans-serif" font-size="14" lengthAdjust="spacing" textLength="138.2842" x="1012.57" y="336.4157">issued_at: datetime</text><g data-visibility-modifier="IE_MANDATORY"><ellipse cx="1003.57" cy="349.3659" fill="#000000" rx="3" ry="3" style="stroke:#000000;stroke-width:1;"/></g><text fill="#000000" font-family="sans-serif" font-size="14" lengthAdjust="spacing" textLength="160.7607" x="1012.57" y="352.7126">certificate_code: string</text><g data-visibility-modifier="IE_MANDATORY"><ellipse cx="1003.57" cy="365.6628" fill="#000000" rx="3" ry="3" style="stroke:#000000;stroke-width:1;"/></g><text fill="#000000" font-family="sans-serif" font-size="14" lengthAdjust="spacing" textLength="109.6006" x="1012.57" y="369.0095">user_id: integer</text><text fill="#000000" font-family="sans-serif" font-size="14" lengthAdjust="spacing" textLength="124.8516" x="1012.57" y="385.3064">cursus_id: integer</text><g data-visibility-modifier="IE_MANDATORY"><ellipse cx="1003.57" cy="398.2566" fill="#000000" rx="3" ry="3" style="stroke:#000000;stroke-width:1;"/></g><text fill="#000000" font-family="sans-serif" font-size="14" lengthAdjust="spacing" textLength="80.6299" x="1012.57" y="401.6032">type: string</text><text fill="#000000" font-family="sans-serif" font-size="14" lengthAdjust="spacing" textLength="124.291" x="1012.57" y="417.9001">theme_id: integer</text><text fill="#000000" font-family="sans-serif" font-size="14" lengthAdjust="spacing" textLength="123.5938" x="1012.57" y="434.197">lesson_id: integer</text></g><!--class doctrine_migration_versions--><g class="entity" data-qualified-name="doctrine_migration_versions" data-source-line="18" id="ent0003"><rect fill="#F1F1F1" height="91.1875" rx="2.5" ry="2.5" style="stroke:#181818;stroke-width:0.5;" width="203.9072" x="7" y="76.8969"/><text fill="#000000" font-family="sans-serif" font-size="14" lengthAdjust="spacing" textLength="197.9072" x="10" y="94.892">doctrine_migration_versions</text><line style="stroke:#181818;stroke-width:0.5;" x1="8" x2="209.9072" y1="103.1938" y2="103.1938"/><g data-visibility-modifier="IE_MANDATORY"><ellipse cx="18" cy="116.8422" fill="#000000" rx="3" ry="3" style="stroke:#000000;stroke-width:1;"/></g><text fill="#000000" font-family="sans-serif" font-size="14" lengthAdjust="spacing" textLength="100.6318" x="27" y="120.1889">version: string</text><line style="stroke:#181818;stroke-width:1;" x1="8" x2="209.9072" y1="127.4906" y2="127.4906"/><text fill="#000000" font-family="sans-serif" font-size="14" lengthAdjust="spacing" textLength="158.5049" x="13" y="144.4857">executed_at: datetime</text><text fill="#000000" font-family="sans-serif" font-size="14" lengthAdjust="spacing" textLength="166.8174" x="13" y="160.7826">execution_time: integer</text></g><!--class lesson--><g class="entity" data-qualified-name="lesson" data-source-line="24" id="ent0004"><rect fill="#F1F1F1" height="172.6719" rx="2.5" ry="2.5" style="stroke:#181818;stroke-width:0.5;" width="151.877" x="831.02" y="509.6469"/><text fill="#000000" font-family="sans-serif" font-size="14" lengthAdjust="spacing" textLength="44.5293" x="884.6938" y="527.642">lesson</text><line style="stroke:#181818;stroke-width:0.5;" x1="832.02" x2="981.897" y1="535.9438" y2="535.9438"/><g data-visibility-modifier="IE_MANDATORY"><ellipse cx="842.02" cy="549.5922" fill="#000000" rx="3" ry="3" style="stroke:#000000;stroke-width:1;"/></g><text fill="#000000" font-family="sans-serif" font-size="14" lengthAdjust="spacing" textLength="72.0645" x="851.02" y="552.9389">id: integer</text><line style="stroke:#181818;stroke-width:1;" x1="832.02" x2="981.897" y1="560.2406" y2="560.2406"/><g data-visibility-modifier="IE_MANDATORY"><ellipse cx="842.02" cy="573.8891" fill="#000000" rx="3" ry="3" style="stroke:#000000;stroke-width:1;"/></g><text fill="#000000" font-family="sans-serif" font-size="14" lengthAdjust="spacing" textLength="76.7266" x="851.02" y="577.2357">title: string</text><g data-visibility-modifier="IE_MANDATORY"><ellipse cx="842.02" cy="590.1859" fill="#000000" rx="3" ry="3" style="stroke:#000000;stroke-width:1;"/></g><text fill="#000000" font-family="sans-serif" font-size="14" lengthAdjust="spacing" textLength="99.2031" x="851.02" y="593.5326">price: decimal</text><g data-visibility-modifier="IE_MANDATORY"><ellipse cx="842.02" cy="606.4828" fill="#000000" rx="3" ry="3" style="stroke:#000000;stroke-width:1;"/></g><text fill="#000000" font-family="sans-serif" font-size="14" lengthAdjust="spacing" textLength="124.8516" x="851.02" y="609.8295">cursus_id: integer</text><text fill="#000000" font-family="sans-serif" font-size="14" lengthAdjust="spacing" textLength="71.0459" x="851.02" y="626.1264">fiche: text</text><text fill="#000000" font-family="sans-serif" font-size="14" lengthAdjust="spacing" textLength="113.1143" x="851.02" y="642.4232">video_url: string</text><text fill="#000000" font-family="sans-serif" font-size="14" lengthAdjust="spacing" textLength="92.9619" x="851.02" y="658.7201">image: string</text><g data-visibility-modifier="IE_MANDATORY"><ellipse cx="842.02" cy="671.6703" fill="#000000" rx="3" ry="3" style="stroke:#000000;stroke-width:1;"/></g><text fill="#000000" font-family="sans-serif" font-size="14" lengthAdjust="spacing" textLength="125.877" x="851.02" y="675.017">is_active: boolean</text></g><!--class cursus--><g class="entity" data-qualified-name="cursus" data-source-line="35" id="ent0005"><rect fill="#F1F1F1" height="156.375" rx="2.5" ry="2.5" style="stroke:#181818;stroke-width:0.5;" width="151.877" x="899.02" y="774.9069"/><text fill="#000000" font-family="sans-serif" font-size="14" lengthAdjust="spacing" textLength="45.7871" x="952.0649" y="792.902">cursus</text><line style="stroke:#181818;stroke-width:0.5;" x1="900.02" x2="1049.897" y1="801.2038" y2="801.2038"/><g data-visibility-modifier="IE_MANDATORY"><ellipse cx="910.02" cy="814.8522" fill="#000000" rx="3" ry="3" style="stroke:#000000;stroke-width:1;"/></g><text fill="#000000" font-family="sans-serif" font-size="14" lengthAdjust="spacing" textLength="72.0645" x="919.02" y="818.1989">id: integer</text><line style="stroke:#181818;stroke-width:1;" x1="900.02" x2="1049.897" y1="825.5006" y2="825.5006"/><g data-visibility-modifier="IE_MANDATORY"><ellipse cx="910.02" cy="839.1491" fill="#000000" rx="3" ry="3" style="stroke:#000000;stroke-width:1;"/></g><text fill="#000000" font-family="sans-serif" font-size="14" lengthAdjust="spacing" textLength="89.0586" x="919.02" y="842.4957">name: string</text><g data-visibility-modifier="IE_MANDATORY"><ellipse cx="910.02" cy="855.4459" fill="#000000" rx="3" ry="3" style="stroke:#000000;stroke-width:1;"/></g><text fill="#000000" font-family="sans-serif" font-size="14" lengthAdjust="spacing" textLength="99.2031" x="919.02" y="858.7926">price: decimal</text><g data-visibility-modifier="IE_MANDATORY"><ellipse cx="910.02" cy="871.7428" fill="#000000" rx="3" ry="3" style="stroke:#000000;stroke-width:1;"/></g><text fill="#000000" font-family="sans-serif" font-size="14" lengthAdjust="spacing" textLength="124.291" x="919.02" y="875.0895">theme_id: integer</text><text fill="#000000" font-family="sans-serif" font-size="14" lengthAdjust="spacing" textLength="92.9619" x="919.02" y="891.3864">image: string</text><text fill="#000000" font-family="sans-serif" font-size="14" lengthAdjust="spacing" textLength="114.8848" x="919.02" y="907.6832">description: text</text><g data-visibility-modifier="IE_MANDATORY"><ellipse cx="910.02" cy="920.6334" fill="#000000" rx="3" ry="3" style="stroke:#000000;stroke-width:1;"/></g><text fill="#000000" font-family="sans-serif" font-size="14" lengthAdjust="spacing" textLength="125.877" x="919.02" y="923.9801">is_active: boolean</text></g><!--class lesson_validated--><g class="entity" data-qualified-name="lesson_validated" data-source-line="45" id="ent0006"><rect fill="#F1F1F1" height="140.0781" rx="2.5" ry="2.5" style="stroke:#181818;stroke-width:0.5;" width="208.2666" x="465.82" y="52.4469"/><text fill="#000000" font-family="sans-serif" font-size="14" lengthAdjust="spacing" textLength="116.6279" x="511.6393" y="70.442">lesson_validated</text><line style="stroke:#181818;stroke-width:0.5;" x1="466.82" x2="673.0866" y1="78.7438" y2="78.7438"/><g data-visibility-modifier="IE_MANDATORY"><ellipse cx="476.82" cy="92.3922" fill="#000000" rx="3" ry="3" style="stroke:#000000;stroke-width:1;"/></g><text fill="#000000" font-family="sans-serif" font-size="14" lengthAdjust="spacing" textLength="72.0645" x="485.82" y="95.7389">id: integer</text><line style="stroke:#181818;stroke-width:1;" x1="466.82" x2="673.0866" y1="103.0406" y2="103.0406"/><g data-visibility-modifier="IE_MANDATORY"><ellipse cx="476.82" cy="116.6891" fill="#000000" rx="3" ry="3" style="stroke:#000000;stroke-width:1;"/></g><text fill="#000000" font-family="sans-serif" font-size="14" lengthAdjust="spacing" textLength="158.5322" x="485.82" y="120.0357">validated_at: datetime</text><g data-visibility-modifier="IE_MANDATORY"><ellipse cx="476.82" cy="132.9859" fill="#000000" rx="3" ry="3" style="stroke:#000000;stroke-width:1;"/></g><text fill="#000000" font-family="sans-serif" font-size="14" lengthAdjust="spacing" textLength="139.4189" x="485.82" y="136.3326">completed: boolean</text><g data-visibility-modifier="IE_MANDATORY"><ellipse cx="476.82" cy="149.2828" fill="#000000" rx="3" ry="3" style="stroke:#000000;stroke-width:1;"/></g><text fill="#000000" font-family="sans-serif" font-size="14" lengthAdjust="spacing" textLength="109.6006" x="485.82" y="152.6295">user_id: integer</text><g data-visibility-modifier="IE_MANDATORY"><ellipse cx="476.82" cy="165.5797" fill="#000000" rx="3" ry="3" style="stroke:#000000;stroke-width:1;"/></g><text fill="#000000" font-family="sans-serif" font-size="14" lengthAdjust="spacing" textLength="123.5938" x="485.82" y="168.9264">lesson_id: integer</text><text fill="#000000" font-family="sans-serif" font-size="14" lengthAdjust="spacing" textLength="182.2666" x="485.82" y="185.2232">purchase_item_id: integer</text></g><!--class messenger_messages--><g class="entity" data-qualified-name="messenger_messages" data-source-line="54" id="ent0007"><rect fill="#F1F1F1" height="156.375" rx="2.5" ry="2.5" style="stroke:#181818;stroke-width:0.5;" width="184.8672" x="245.52" y="44.2969"/><text fill="#000000" font-family="sans-serif" font-size="14" lengthAdjust="spacing" textLength="154.793" x="260.5571" y="62.292">messenger_messages</text><line style="stroke:#181818;stroke-width:0.5;" x1="246.52" x2="429.3872" y1="70.5938" y2="70.5938"/><g data-visibility-modifier="IE_MANDATORY"><ellipse cx="256.52" cy="84.2422" fill="#000000" rx="3" ry="3" style="stroke:#000000;stroke-width:1;"/></g><text fill="#000000" font-family="sans-serif" font-size="14" lengthAdjust="spacing" textLength="61.8584" x="265.52" y="87.5889">id: bigint</text><line style="stroke:#181818;stroke-width:1;" x1="246.52" x2="429.3872" y1="94.8906" y2="94.8906"/><g data-visibility-modifier="IE_MANDATORY"><ellipse cx="256.52" cy="108.5391" fill="#000000" rx="3" ry="3" style="stroke:#000000;stroke-width:1;"/></g><text fill="#000000" font-family="sans-serif" font-size="14" lengthAdjust="spacing" textLength="71.668" x="265.52" y="111.8857">body: text</text><g data-visibility-modifier="IE_MANDATORY"><ellipse cx="256.52" cy="124.8359" fill="#000000" rx="3" ry="3" style="stroke:#000000;stroke-width:1;"/></g><text fill="#000000" font-family="sans-serif" font-size="14" lengthAdjust="spacing" textLength="93.6592" x="265.52" y="128.1826">headers: text</text><g data-visibility-modifier="IE_MANDATORY"><ellipse cx="256.52" cy="141.1328" fill="#000000" rx="3" ry="3" style="stroke:#000000;stroke-width:1;"/></g><text fill="#000000" font-family="sans-serif" font-size="14" lengthAdjust="spacing" textLength="139.918" x="265.52" y="144.4795">queue_name: string</text><g data-visibility-modifier="IE_MANDATORY"><ellipse cx="256.52" cy="157.4297" fill="#000000" rx="3" ry="3" style="stroke:#000000;stroke-width:1;"/></g><text fill="#000000" font-family="sans-serif" font-size="14" lengthAdjust="spacing" textLength="147.0684" x="265.52" y="160.7764">created_at: datetime</text><g data-visibility-modifier="IE_MANDATORY"><ellipse cx="256.52" cy="173.7266" fill="#000000" rx="3" ry="3" style="stroke:#000000;stroke-width:1;"/></g><text fill="#000000" font-family="sans-serif" font-size="14" lengthAdjust="spacing" textLength="156.625" x="265.52" y="177.0732">available_at: datetime</text><text fill="#000000" font-family="sans-serif" font-size="14" lengthAdjust="spacing" textLength="158.8672" x="265.52" y="193.3701">delivered_at: datetime</text></g><!--class purchase--><g class="entity" data-qualified-name="purchase" data-source-line="64" id="ent0008"><rect fill="#F1F1F1" height="156.375" rx="2.5" ry="2.5" style="stroke:#181818;stroke-width:0.5;" width="174.5723" x="479.67" y="517.7969"/><text fill="#000000" font-family="sans-serif" font-size="14" lengthAdjust="spacing" textLength="64.5723" x="534.67" y="535.792">purchase</text><line style="stroke:#181818;stroke-width:0.5;" x1="480.67" x2="653.2423" y1="544.0938" y2="544.0938"/><g data-visibility-modifier="IE_MANDATORY"><ellipse cx="490.67" cy="557.7422" fill="#000000" rx="3" ry="3" style="stroke:#000000;stroke-width:1;"/></g><text fill="#000000" font-family="sans-serif" font-size="14" lengthAdjust="spacing" textLength="72.0645" x="499.67" y="561.0889">id: integer</text><line style="stroke:#181818;stroke-width:1;" x1="480.67" x2="653.2423" y1="568.3906" y2="568.3906"/><g data-visibility-modifier="IE_MANDATORY"><ellipse cx="490.67" cy="582.0391" fill="#000000" rx="3" ry="3" style="stroke:#000000;stroke-width:1;"/></g><text fill="#000000" font-family="sans-serif" font-size="14" lengthAdjust="spacing" textLength="147.0684" x="499.67" y="585.3857">created_at: datetime</text><g data-visibility-modifier="IE_MANDATORY"><ellipse cx="490.67" cy="598.3359" fill="#000000" rx="3" ry="3" style="stroke:#000000;stroke-width:1;"/></g><text fill="#000000" font-family="sans-serif" font-size="14" lengthAdjust="spacing" textLength="96.373" x="499.67" y="601.6826">total: decimal</text><g data-visibility-modifier="IE_MANDATORY"><ellipse cx="490.67" cy="614.6328" fill="#000000" rx="3" ry="3" style="stroke:#000000;stroke-width:1;"/></g><text fill="#000000" font-family="sans-serif" font-size="14" lengthAdjust="spacing" textLength="92.374" x="499.67" y="617.9795">status: string</text><g data-visibility-modifier="IE_MANDATORY"><ellipse cx="490.67" cy="630.9297" fill="#000000" rx="3" ry="3" style="stroke:#000000;stroke-width:1;"/></g><text fill="#000000" font-family="sans-serif" font-size="14" lengthAdjust="spacing" textLength="109.6006" x="499.67" y="634.2764">user_id: integer</text><text fill="#000000" font-family="sans-serif" font-size="14" lengthAdjust="spacing" textLength="123.6758" x="499.67" y="650.5732">paid_at: datetime</text><g data-visibility-modifier="IE_MANDATORY"><ellipse cx="490.67" cy="663.5234" fill="#000000" rx="3" ry="3" style="stroke:#000000;stroke-width:1;"/></g><text fill="#000000" font-family="sans-serif" font-size="14" lengthAdjust="spacing" textLength="148.5723" x="499.67" y="666.8701">order_number: string</text></g><!--class purchase_item--><g class="entity" data-qualified-name="purchase_item" data-source-line="74" id="ent0009"><rect fill="#F1F1F1" height="140.0781" rx="2.5" ry="2.5" style="stroke:#181818;stroke-width:0.5;" width="169.6367" x="485.14" y="285.1169"/><text fill="#000000" font-family="sans-serif" font-size="14" lengthAdjust="spacing" textLength="103.2021" x="518.3573" y="303.112">purchase_item</text><line style="stroke:#181818;stroke-width:0.5;" x1="486.14" x2="653.7767" y1="311.4138" y2="311.4138"/><g data-visibility-modifier="IE_MANDATORY"><ellipse cx="496.14" cy="325.0622" fill="#000000" rx="3" ry="3" style="stroke:#000000;stroke-width:1;"/></g><text fill="#000000" font-family="sans-serif" font-size="14" lengthAdjust="spacing" textLength="72.0645" x="505.14" y="328.4089">id: integer</text><line style="stroke:#181818;stroke-width:1;" x1="486.14" x2="653.7767" y1="335.7106" y2="335.7106"/><g data-visibility-modifier="IE_MANDATORY"><ellipse cx="496.14" cy="349.3591" fill="#000000" rx="3" ry="3" style="stroke:#000000;stroke-width:1;"/></g><text fill="#000000" font-family="sans-serif" font-size="14" lengthAdjust="spacing" textLength="143.6367" x="505.14" y="352.7057">purchase_id: integer</text><text fill="#000000" font-family="sans-serif" font-size="14" lengthAdjust="spacing" textLength="124.8516" x="505.14" y="369.0026">cursus_id: integer</text><text fill="#000000" font-family="sans-serif" font-size="14" lengthAdjust="spacing" textLength="123.5938" x="505.14" y="385.2995">lesson_id: integer</text><g data-visibility-modifier="IE_MANDATORY"><ellipse cx="496.14" cy="398.2497" fill="#000000" rx="3" ry="3" style="stroke:#000000;stroke-width:1;"/></g><text fill="#000000" font-family="sans-serif" font-size="14" lengthAdjust="spacing" textLength="117.6533" x="505.14" y="401.5964">quantity: integer</text><g data-visibility-modifier="IE_MANDATORY"><ellipse cx="496.14" cy="414.5466" fill="#000000" rx="3" ry="3" style="stroke:#000000;stroke-width:1;"/></g><text fill="#000000" font-family="sans-serif" font-size="14" lengthAdjust="spacing" textLength="133.3281" x="505.14" y="417.8932">unit_price: decimal</text></g><!--class contact--><g class="entity" data-qualified-name="contact" data-source-line="83" id="ent0010"><rect fill="#F1F1F1" height="188.9688" rx="2.5" ry="2.5" style="stroke:#181818;stroke-width:0.5;" width="176.0352" x="20.94" y="260.6769"/><text fill="#000000" font-family="sans-serif" font-size="14" lengthAdjust="spacing" textLength="52.3906" x="82.7623" y="278.672">contact</text><line style="stroke:#181818;stroke-width:0.5;" x1="21.94" x2="195.9752" y1="286.9738" y2="286.9738"/><g data-visibility-modifier="IE_MANDATORY"><ellipse cx="31.94" cy="300.6222" fill="#000000" rx="3" ry="3" style="stroke:#000000;stroke-width:1;"/></g><text fill="#000000" font-family="sans-serif" font-size="14" lengthAdjust="spacing" textLength="72.0645" x="40.94" y="303.9689">id: integer</text><line style="stroke:#181818;stroke-width:1;" x1="21.94" x2="195.9752" y1="311.2706" y2="311.2706"/><g data-visibility-modifier="IE_MANDATORY"><ellipse cx="31.94" cy="324.9191" fill="#000000" rx="3" ry="3" style="stroke:#000000;stroke-width:1;"/></g><text fill="#000000" font-family="sans-serif" font-size="14" lengthAdjust="spacing" textLength="110.6396" x="40.94" y="328.2657">fullname: string</text><g data-visibility-modifier="IE_MANDATORY"><ellipse cx="31.94" cy="341.2159" fill="#000000" rx="3" ry="3" style="stroke:#000000;stroke-width:1;"/></g><text fill="#000000" font-family="sans-serif" font-size="14" lengthAdjust="spacing" textLength="87.9648" x="40.94" y="344.5626">email: string</text><g data-visibility-modifier="IE_MANDATORY"><ellipse cx="31.94" cy="357.5128" fill="#000000" rx="3" ry="3" style="stroke:#000000;stroke-width:1;"/></g><text fill="#000000" font-family="sans-serif" font-size="14" lengthAdjust="spacing" textLength="99.9619" x="40.94" y="360.8595">message: text</text><g data-visibility-modifier="IE_MANDATORY"><ellipse cx="31.94" cy="373.8097" fill="#000000" rx="3" ry="3" style="stroke:#000000;stroke-width:1;"/></g><text fill="#000000" font-family="sans-serif" font-size="14" lengthAdjust="spacing" textLength="123.7031" x="40.94" y="377.1564">sent_at: datetime</text><g data-visibility-modifier="IE_MANDATORY"><ellipse cx="31.94" cy="390.1066" fill="#000000" rx="3" ry="3" style="stroke:#000000;stroke-width:1;"/></g><text fill="#000000" font-family="sans-serif" font-size="14" lengthAdjust="spacing" textLength="121.7412" x="40.94" y="393.4532">handled: boolean</text><g data-visibility-modifier="IE_MANDATORY"><ellipse cx="31.94" cy="406.4034" fill="#000000" rx="3" ry="3" style="stroke:#000000;stroke-width:1;"/></g><text fill="#000000" font-family="sans-serif" font-size="14" lengthAdjust="spacing" textLength="100.0986" x="40.94" y="409.7501">subject: string</text><text fill="#000000" font-family="sans-serif" font-size="14" lengthAdjust="spacing" textLength="125.2686" x="40.94" y="426.047">read_at: datetime</text><text fill="#000000" font-family="sans-serif" font-size="14" lengthAdjust="spacing" textLength="150.0352" x="40.94" y="442.3439">handled_at: datetime</text></g><!--class theme--><g class="entity" data-qualified-name="theme" data-source-line="95" id="ent0011"><rect fill="#F1F1F1" height="140.0781" rx="2.5" ry="2.5" style="stroke:#181818;stroke-width:0.5;" width="173.0684" x="1023.42" y="1023.8769"/><text fill="#000000" font-family="sans-serif" font-size="14" lengthAdjust="spacing" textLength="45.2266" x="1087.3409" y="1041.872">theme</text><line style="stroke:#181818;stroke-width:0.5;" x1="1024.42" x2="1195.4884" y1="1050.1738" y2="1050.1738"/><g data-visibility-modifier="IE_MANDATORY"><ellipse cx="1034.42" cy="1063.8222" fill="#000000" rx="3" ry="3" style="stroke:#000000;stroke-width:1;"/></g><text fill="#000000" font-family="sans-serif" font-size="14" lengthAdjust="spacing" textLength="72.0645" x="1043.42" y="1067.1689">id: integer</text><line style="stroke:#181818;stroke-width:1;" x1="1024.42" x2="1195.4884" y1="1074.4706" y2="1074.4706"/><g data-visibility-modifier="IE_MANDATORY"><ellipse cx="1034.42" cy="1088.1191" fill="#000000" rx="3" ry="3" style="stroke:#000000;stroke-width:1;"/></g><text fill="#000000" font-family="sans-serif" font-size="14" lengthAdjust="spacing" textLength="89.0586" x="1043.42" y="1091.4657">name: string</text><text fill="#000000" font-family="sans-serif" font-size="14" lengthAdjust="spacing" textLength="114.8848" x="1043.42" y="1107.7626">description: text</text><text fill="#000000" font-family="sans-serif" font-size="14" lengthAdjust="spacing" textLength="92.9619" x="1043.42" y="1124.0595">image: string</text><g data-visibility-modifier="IE_MANDATORY"><ellipse cx="1034.42" cy="1137.0097" fill="#000000" rx="3" ry="3" style="stroke:#000000;stroke-width:1;"/></g><text fill="#000000" font-family="sans-serif" font-size="14" lengthAdjust="spacing" textLength="147.0684" x="1043.42" y="1140.3564">created_at: datetime</text><g data-visibility-modifier="IE_MANDATORY"><ellipse cx="1034.42" cy="1153.3066" fill="#000000" rx="3" ry="3" style="stroke:#000000;stroke-width:1;"/></g><text fill="#000000" font-family="sans-serif" font-size="14" lengthAdjust="spacing" textLength="125.877" x="1043.42" y="1156.6532">is_active: boolean</text></g><!--class user--><g class="entity" data-qualified-name="user" data-source-line="104" id="ent0012"><rect fill="#F1F1F1" height="221.5625" rx="2.5" ry="2.5" style="stroke:#181818;stroke-width:0.5;" width="302.876" x="522.52" y="742.3169"/><text fill="#000000" font-family="sans-serif" font-size="14" lengthAdjust="spacing" textLength="30.5361" x="658.6899" y="760.312">user</text><line style="stroke:#181818;stroke-width:0.5;" x1="523.52" x2="824.396" y1="768.6138" y2="768.6138"/><g data-visibility-modifier="IE_MANDATORY"><ellipse cx="533.52" cy="782.2622" fill="#000000" rx="3" ry="3" style="stroke:#000000;stroke-width:1;"/></g><text fill="#000000" font-family="sans-serif" font-size="14" lengthAdjust="spacing" textLength="72.0645" x="542.52" y="785.6089">id: integer</text><line style="stroke:#181818;stroke-width:1;" x1="523.52" x2="824.396" y1="792.9106" y2="792.9106"/><g data-visibility-modifier="IE_MANDATORY"><ellipse cx="533.52" cy="806.5591" fill="#000000" rx="3" ry="3" style="stroke:#000000;stroke-width:1;"/></g><text fill="#000000" font-family="sans-serif" font-size="14" lengthAdjust="spacing" textLength="87.9648" x="542.52" y="809.9057">email: string</text><g data-visibility-modifier="IE_MANDATORY"><ellipse cx="533.52" cy="822.8559" fill="#000000" rx="3" ry="3" style="stroke:#000000;stroke-width:1;"/></g><text fill="#000000" font-family="sans-serif" font-size="14" lengthAdjust="spacing" textLength="71.9072" x="542.52" y="826.2026">roles: json</text><g data-visibility-modifier="IE_MANDATORY"><ellipse cx="533.52" cy="839.1528" fill="#000000" rx="3" ry="3" style="stroke:#000000;stroke-width:1;"/></g><text fill="#000000" font-family="sans-serif" font-size="14" lengthAdjust="spacing" textLength="116.0674" x="542.52" y="842.4995">password: string</text><g data-visibility-modifier="IE_MANDATORY"><ellipse cx="533.52" cy="855.4497" fill="#000000" rx="3" ry="3" style="stroke:#000000;stroke-width:1;"/></g><text fill="#000000" font-family="sans-serif" font-size="14" lengthAdjust="spacing" textLength="136.1855" x="542.52" y="858.7964">is_verified: boolean</text><text fill="#000000" font-family="sans-serif" font-size="14" lengthAdjust="spacing" textLength="174.46" x="542.52" y="875.0932">verification_token: string</text><text fill="#000000" font-family="sans-serif" font-size="14" lengthAdjust="spacing" textLength="276.876" x="542.52" y="891.3901">verification_token_expires_at: datetime</text><g data-visibility-modifier="IE_MANDATORY"><ellipse cx="533.52" cy="904.3403" fill="#000000" rx="3" ry="3" style="stroke:#000000;stroke-width:1;"/></g><text fill="#000000" font-family="sans-serif" font-size="14" lengthAdjust="spacing" textLength="123.416" x="542.52" y="907.687">first_name: string</text><g data-visibility-modifier="IE_MANDATORY"><ellipse cx="533.52" cy="920.6372" fill="#000000" rx="3" ry="3" style="stroke:#000000;stroke-width:1;"/></g><text fill="#000000" font-family="sans-serif" font-size="14" lengthAdjust="spacing" textLength="121.3105" x="542.52" y="923.9839">last_name: string</text><text fill="#000000" font-family="sans-serif" font-size="14" lengthAdjust="spacing" textLength="147.0684" x="542.52" y="940.2807">created_at: datetime</text><text fill="#000000" font-family="sans-serif" font-size="14" lengthAdjust="spacing" textLength="154.0137" x="542.52" y="956.5776">archived_at: datetime</text></g><!--class user_completed_lessons--><g class="entity" data-qualified-name="user_completed_lessons" data-source-line="118" id="ent0013"><rect fill="#F1F1F1" height="74.8906" rx="2.5" ry="2.5" style="stroke:#181818;stroke-width:0.5;" width="176.6387" x="689.63" y="317.7169"/><text fill="#000000" font-family="sans-serif" font-size="14" lengthAdjust="spacing" textLength="170.6387" x="692.63" y="335.712">user_completed_lessons</text><line style="stroke:#181818;stroke-width:0.5;" x1="690.63" x2="865.2687" y1="344.0138" y2="344.0138"/><g data-visibility-modifier="IE_MANDATORY"><ellipse cx="700.63" cy="357.6622" fill="#000000" rx="3" ry="3" style="stroke:#000000;stroke-width:1;"/></g><text fill="#000000" font-family="sans-serif" font-size="14" lengthAdjust="spacing" textLength="109.6006" x="709.63" y="361.0089">user_id: integer</text><g data-visibility-modifier="IE_MANDATORY"><ellipse cx="700.63" cy="373.9591" fill="#000000" rx="3" ry="3" style="stroke:#000000;stroke-width:1;"/></g><text fill="#000000" font-family="sans-serif" font-size="14" lengthAdjust="spacing" textLength="123.5938" x="709.63" y="377.3057">lesson_id: integer</text><line style="stroke:#181818;stroke-width:1;" x1="690.63" x2="865.2687" y1="384.6075" y2="384.6075"/></g><!--link certification to cursus--><g class="link" data-entity-1="ent0002" data-entity-2="ent0005" data-link-type="crowfoot" data-source-line="123" id="lnk14"><path codeLine="123" d="M1031.45,459.8969 C1031.45,553.7969 1031.45,669.2269 1031.45,759.7269" fill="none" id="certification-cursus" style="stroke:#181818;stroke-width:1;"/><line style="stroke:#181818;stroke-width:1;" x1="1031.45" x2="1025.45" y1="449.8969" y2="441.8969"/><line style="stroke:#181818;stroke-width:1;" x1="1031.45" x2="1037.45" y1="449.8969" y2="441.8969"/><line style="stroke:#181818;stroke-width:1;" x1="1031.45" x2="1031.45" y1="449.8969" y2="441.8969"/><ellipse cx="1031.45" cy="455.8969" fill="none" rx="4" ry="4" style="stroke:#181818;stroke-width:1;"/><line style="stroke:#181818;stroke-width:1;" x1="1031.45" x2="1031.45" y1="763.7269" y2="774.7269"/><ellipse cx="1031.45" cy="763.7269" fill="none" rx="4" ry="4" style="stroke:#181818;stroke-width:1;"/><line style="stroke:#181818;stroke-width:1;" x1="1035.45" x2="1027.45" y1="770.7269" y2="770.7269"/></g><!--link certification to theme--><g class="link" data-entity-1="ent0002" data-entity-2="ent0011" data-link-type="crowfoot" data-source-line="124" id="lnk15"><path codeLine="124" d="M1115.11,459.7169 C1115.11,607.4569 1115.11,872.4869 1115.11,1008.4369" fill="none" id="certification-theme" style="stroke:#181818;stroke-width:1;"/><line style="stroke:#181818;stroke-width:1;" x1="1115.11" x2="1109.11" y1="449.7169" y2="441.7169"/><line style="stroke:#181818;stroke-width:1;" x1="1115.11" x2="1121.11" y1="449.7169" y2="441.7169"/><line style="stroke:#181818;stroke-width:1;" x1="1115.11" x2="1115.11" y1="449.7169" y2="441.7169"/><ellipse cx="1115.11" cy="455.7169" fill="none" rx="4" ry="4" style="stroke:#181818;stroke-width:1;"/><line style="stroke:#181818;stroke-width:1;" x1="1115.11" x2="1115.11" y1="1012.4369" y2="1023.4369"/><ellipse cx="1115.11" cy="1012.4369" fill="none" rx="4" ry="4" style="stroke:#181818;stroke-width:1;"/><line style="stroke:#181818;stroke-width:1;" x1="1119.11" x2="1111.11" y1="1019.4369" y2="1019.4369"/></g><!--link certification to user--><g class="link" data-entity-1="ent0002" data-entity-2="ent0012" data-link-type="crowfoot" data-source-line="125" id="lnk16"><path codeLine="125" d="M1012.01,459.7869 C1012.01,578.4369 1012.01,758.9569 1012.01,758.9569 C1012.01,758.9569 923.55,758.9569 833.68,758.9569" fill="none" id="certification-user" style="stroke:#181818;stroke-width:1;"/><line style="stroke:#181818;stroke-width:1;" x1="1012.01" x2="1006.01" y1="449.7869" y2="441.7869"/><line style="stroke:#181818;stroke-width:1;" x1="1012.01" x2="1018.01" y1="449.7869" y2="441.7869"/><line style="stroke:#181818;stroke-width:1;" x1="1012.01" x2="1012.01" y1="449.7869" y2="441.7869"/><ellipse cx="1012.01" cy="455.7869" fill="none" rx="4" ry="4" style="stroke:#181818;stroke-width:1;"/><line style="stroke:#181818;stroke-width:1;" x1="829.68" x2="829.68" y1="762.9569" y2="754.9569"/><line style="stroke:#181818;stroke-width:1;" x1="832.68" x2="832.68" y1="762.9569" y2="754.9569"/><line style="stroke:#181818;stroke-width:1;" x1="833.68" x2="825.68" y1="758.9569" y2="758.9569"/></g><!--link certification to lesson--><g class="link" data-entity-1="ent0002" data-entity-2="ent0004" data-link-type="crowfoot" data-source-line="126" id="lnk17"><path codeLine="126" d="M974.08,433.9569 C938.58,433.9569 924.58,433.9569 924.58,433.9569 C924.58,433.9569 924.58,455.7569 924.58,494.2769" fill="none" id="certification-lesson" style="stroke:#181818;stroke-width:1;"/><line style="stroke:#181818;stroke-width:1;" x1="984.08" x2="992.08" y1="433.9569" y2="427.9569"/><line style="stroke:#181818;stroke-width:1;" x1="984.08" x2="992.08" y1="433.9569" y2="439.9569"/><line style="stroke:#181818;stroke-width:1;" x1="984.08" x2="992.08" y1="433.9569" y2="433.9569"/><ellipse cx="978.08" cy="433.9569" fill="none" rx="4" ry="4" style="stroke:#181818;stroke-width:1;"/><line style="stroke:#181818;stroke-width:1;" x1="924.58" x2="924.58" y1="498.2769" y2="509.2769"/><ellipse cx="924.58" cy="498.2769" fill="none" rx="4" ry="4" style="stroke:#181818;stroke-width:1;"/><line style="stroke:#181818;stroke-width:1;" x1="928.58" x2="920.58" y1="505.2769" y2="505.2769"/></g><!--link lesson to cursus--><g class="link" data-entity-1="ent0004" data-entity-2="ent0005" data-link-type="crowfoot" data-source-line="127" id="lnk18"><path codeLine="127" d="M940.95,700.6669 C940.95,730.4069 940.95,737.5069 940.95,766.5669" fill="none" id="lesson-cursus" style="stroke:#181818;stroke-width:1;"/><line style="stroke:#181818;stroke-width:1;" x1="940.95" x2="934.95" y1="690.6669" y2="682.6669"/><line style="stroke:#181818;stroke-width:1;" x1="940.95" x2="946.95" y1="690.6669" y2="682.6669"/><line style="stroke:#181818;stroke-width:1;" x1="940.95" x2="940.95" y1="690.6669" y2="682.6669"/><ellipse cx="940.95" cy="696.6669" fill="none" rx="4" ry="4" style="stroke:#181818;stroke-width:1;"/><line style="stroke:#181818;stroke-width:1;" x1="944.95" x2="936.95" y1="770.5669" y2="770.5669"/><line style="stroke:#181818;stroke-width:1;" x1="944.95" x2="936.95" y1="767.5669" y2="767.5669"/><line style="stroke:#181818;stroke-width:1;" x1="940.95" x2="940.95" y1="766.5669" y2="774.5669"/></g><!--link cursus to theme--><g class="link" data-entity-1="ent0005" data-entity-2="ent0011" data-link-type="crowfoot" data-source-line="128" id="lnk19"><path codeLine="128" d="M1037.16,949.6169 C1037.16,979.2669 1037.16,986.7869 1037.16,1015.6269" fill="none" id="cursus-theme" style="stroke:#181818;stroke-width:1;"/><line style="stroke:#181818;stroke-width:1;" x1="1037.16" x2="1031.16" y1="939.6169" y2="931.6169"/><line style="stroke:#181818;stroke-width:1;" x1="1037.16" x2="1043.16" y1="939.6169" y2="931.6169"/><line style="stroke:#181818;stroke-width:1;" x1="1037.16" x2="1037.16" y1="939.6169" y2="931.6169"/><ellipse cx="1037.16" cy="945.6169" fill="none" rx="4" ry="4" style="stroke:#181818;stroke-width:1;"/><line style="stroke:#181818;stroke-width:1;" x1="1041.16" x2="1033.16" y1="1019.6269" y2="1019.6269"/><line style="stroke:#181818;stroke-width:1;" x1="1041.16" x2="1033.16" y1="1016.6269" y2="1016.6269"/><line style="stroke:#181818;stroke-width:1;" x1="1037.16" x2="1037.16" y1="1015.6269" y2="1023.6269"/></g><!--link lesson_validated to purchase_item--><g class="link" data-entity-1="ent0006" data-entity-2="ent0009" data-link-type="crowfoot" data-source-line="129" id="lnk20"><path codeLine="129" d="M569.95,210.9269 C569.95,240.0869 569.95,240.8269 569.95,269.9569" fill="none" id="lesson_validated-purchase_item" style="stroke:#181818;stroke-width:1;"/><line style="stroke:#181818;stroke-width:1;" x1="569.95" x2="563.95" y1="200.9269" y2="192.9269"/><line style="stroke:#181818;stroke-width:1;" x1="569.95" x2="575.95" y1="200.9269" y2="192.9269"/><line style="stroke:#181818;stroke-width:1;" x1="569.95" x2="569.95" y1="200.9269" y2="192.9269"/><ellipse cx="569.95" cy="206.9269" fill="none" rx="4" ry="4" style="stroke:#181818;stroke-width:1;"/><line style="stroke:#181818;stroke-width:1;" x1="569.95" x2="569.95" y1="273.9569" y2="284.9569"/><ellipse cx="569.95" cy="273.9569" fill="none" rx="4" ry="4" style="stroke:#181818;stroke-width:1;"/><line style="stroke:#181818;stroke-width:1;" x1="573.95" x2="565.95" y1="280.9569" y2="280.9569"/></g><!--link lesson_validated to user--><g class="link" data-entity-1="ent0006" data-entity-2="ent0012" data-link-type="crowfoot" data-source-line="130" id="lnk21"><path codeLine="130" d="M661.21,210.8769 C661.21,338.1969 661.21,581.6469 661.21,734.0269" fill="none" id="lesson_validated-user" style="stroke:#181818;stroke-width:1;"/><line style="stroke:#181818;stroke-width:1;" x1="661.21" x2="655.21" y1="200.8769" y2="192.8769"/><line style="stroke:#181818;stroke-width:1;" x1="661.21" x2="667.21" y1="200.8769" y2="192.8769"/><line style="stroke:#181818;stroke-width:1;" x1="661.21" x2="661.21" y1="200.8769" y2="192.8769"/><ellipse cx="661.21" cy="206.8769" fill="none" rx="4" ry="4" style="stroke:#181818;stroke-width:1;"/><line style="stroke:#181818;stroke-width:1;" x1="665.21" x2="657.21" y1="738.0269" y2="738.0269"/><line style="stroke:#181818;stroke-width:1;" x1="665.21" x2="657.21" y1="735.0269" y2="735.0269"/><line style="stroke:#181818;stroke-width:1;" x1="661.21" x2="661.21" y1="734.0269" y2="742.0269"/></g><!--link lesson_validated to lesson--><g class="link" data-entity-1="ent0006" data-entity-2="ent0004" data-link-type="crowfoot" data-source-line="131" id="lnk22"><path codeLine="131" d="M667.65,210.9269 C667.65,323.6369 667.65,513.9569 667.65,513.9569 C667.65,513.9569 752.54,513.9569 822.58,513.9569" fill="none" id="lesson_validated-lesson" style="stroke:#181818;stroke-width:1;"/><line style="stroke:#181818;stroke-width:1;" x1="667.65" x2="661.65" y1="200.9269" y2="192.9269"/><line style="stroke:#181818;stroke-width:1;" x1="667.65" x2="673.65" y1="200.9269" y2="192.9269"/><line style="stroke:#181818;stroke-width:1;" x1="667.65" x2="667.65" y1="200.9269" y2="192.9269"/><ellipse cx="667.65" cy="206.9269" fill="none" rx="4" ry="4" style="stroke:#181818;stroke-width:1;"/><line style="stroke:#181818;stroke-width:1;" x1="826.58" x2="826.58" y1="509.9569" y2="517.9569"/><line style="stroke:#181818;stroke-width:1;" x1="823.58" x2="823.58" y1="509.9569" y2="517.9569"/><line style="stroke:#181818;stroke-width:1;" x1="822.58" x2="830.58" y1="513.9569" y2="513.9569"/></g><!--link purchase to user--><g class="link" data-entity-1="ent0008" data-entity-2="ent0012" data-link-type="crowfoot" data-source-line="132" id="lnk23"><path codeLine="132" d="M588.38,692.5169 C588.38,713.7869 588.38,711.2169 588.38,733.9069" fill="none" id="purchase-user" style="stroke:#181818;stroke-width:1;"/><line style="stroke:#181818;stroke-width:1;" x1="588.38" x2="582.38" y1="682.5169" y2="674.5169"/><line style="stroke:#181818;stroke-width:1;" x1="588.38" x2="594.38" y1="682.5169" y2="674.5169"/><line style="stroke:#181818;stroke-width:1;" x1="588.38" x2="588.38" y1="682.5169" y2="674.5169"/><ellipse cx="588.38" cy="688.5169" fill="none" rx="4" ry="4" style="stroke:#181818;stroke-width:1;"/><line style="stroke:#181818;stroke-width:1;" x1="592.38" x2="584.38" y1="737.9069" y2="737.9069"/><line style="stroke:#181818;stroke-width:1;" x1="592.38" x2="584.38" y1="734.9069" y2="734.9069"/><line style="stroke:#181818;stroke-width:1;" x1="588.38" x2="588.38" y1="733.9069" y2="741.9069"/></g><!--link purchase_item to cursus--><g class="link" data-entity-1="ent0009" data-entity-2="ent0005" data-link-type="crowfoot" data-source-line="133" id="lnk24"><path codeLine="133" d="M673.25,403.9569 C795.44,403.9569 987.73,403.9569 987.73,403.9569 C987.73,403.9569 987.73,630.8569 987.73,759.6069" fill="none" id="purchase_item-cursus" style="stroke:#181818;stroke-width:1;"/><line style="stroke:#181818;stroke-width:1;" x1="663.25" x2="655.25" y1="403.9569" y2="409.9569"/><line style="stroke:#181818;stroke-width:1;" x1="663.25" x2="655.25" y1="403.9569" y2="397.9569"/><line style="stroke:#181818;stroke-width:1;" x1="663.25" x2="655.25" y1="403.9569" y2="403.9569"/><ellipse cx="669.25" cy="403.9569" fill="none" rx="4" ry="4" style="stroke:#181818;stroke-width:1;"/><line style="stroke:#181818;stroke-width:1;" x1="987.73" x2="987.73" y1="763.6069" y2="774.6069"/><ellipse cx="987.73" cy="763.6069" fill="none" rx="4" ry="4" style="stroke:#181818;stroke-width:1;"/><line style="stroke:#181818;stroke-width:1;" x1="991.73" x2="983.73" y1="770.6069" y2="770.6069"/></g><!--link purchase_item to purchase--><g class="link" data-entity-1="ent0009" data-entity-2="ent0008" data-link-type="crowfoot" data-source-line="134" id="lnk25"><path codeLine="134" d="M569.69,443.4669 C569.69,472.3369 569.69,479.8969 569.69,509.5669" fill="none" id="purchase_item-purchase" style="stroke:#181818;stroke-width:1;"/><line style="stroke:#181818;stroke-width:1;" x1="569.69" x2="563.69" y1="433.4669" y2="425.4669"/><line style="stroke:#181818;stroke-width:1;" x1="569.69" x2="575.69" y1="433.4669" y2="425.4669"/><line style="stroke:#181818;stroke-width:1;" x1="569.69" x2="569.69" y1="433.4669" y2="425.4669"/><ellipse cx="569.69" cy="439.4669" fill="none" rx="4" ry="4" style="stroke:#181818;stroke-width:1;"/><line style="stroke:#181818;stroke-width:1;" x1="573.69" x2="565.69" y1="513.5669" y2="513.5669"/><line style="stroke:#181818;stroke-width:1;" x1="573.69" x2="565.69" y1="510.5669" y2="510.5669"/><line style="stroke:#181818;stroke-width:1;" x1="569.69" x2="569.69" y1="509.5669" y2="517.5669"/></g><!--link purchase_item to lesson--><g class="link" data-entity-1="ent0009" data-entity-2="ent0004" data-link-type="crowfoot" data-source-line="135" id="lnk26"><path codeLine="135" d="M673.15,414.9569 C753.2,414.9569 842.77,414.9569 842.77,414.9569 C842.77,414.9569 842.77,447.7169 842.77,494.1769" fill="none" id="purchase_item-lesson" style="stroke:#181818;stroke-width:1;"/><line style="stroke:#181818;stroke-width:1;" x1="663.15" x2="655.15" y1="414.9569" y2="420.9569"/><line style="stroke:#181818;stroke-width:1;" x1="663.15" x2="655.15" y1="414.9569" y2="408.9569"/><line style="stroke:#181818;stroke-width:1;" x1="663.15" x2="655.15" y1="414.9569" y2="414.9569"/><ellipse cx="669.15" cy="414.9569" fill="none" rx="4" ry="4" style="stroke:#181818;stroke-width:1;"/><line style="stroke:#181818;stroke-width:1;" x1="842.77" x2="842.77" y1="498.1769" y2="509.1769"/><ellipse cx="842.77" cy="498.1769" fill="none" rx="4" ry="4" style="stroke:#181818;stroke-width:1;"/><line style="stroke:#181818;stroke-width:1;" x1="846.77" x2="838.77" y1="505.1769" y2="505.1769"/></g><!--link user_completed_lessons to user--><g class="link" data-entity-1="ent0013" data-entity-2="ent0012" data-link-type="crowfoot" data-source-line="136" id="lnk27"><path codeLine="136" d="M757.51,410.9969 C757.51,484.4669 757.51,622.9869 757.51,734.0369" fill="none" id="user_completed_lessons-user" style="stroke:#181818;stroke-width:1;"/><line style="stroke:#181818;stroke-width:1;" x1="757.51" x2="751.51" y1="400.9969" y2="392.9969"/><line style="stroke:#181818;stroke-width:1;" x1="757.51" x2="763.51" y1="400.9969" y2="392.9969"/><line style="stroke:#181818;stroke-width:1;" x1="757.51" x2="757.51" y1="400.9969" y2="392.9969"/><ellipse cx="757.51" cy="406.9969" fill="none" rx="4" ry="4" style="stroke:#181818;stroke-width:1;"/><line style="stroke:#181818;stroke-width:1;" x1="761.51" x2="753.51" y1="738.0369" y2="738.0369"/><line style="stroke:#181818;stroke-width:1;" x1="761.51" x2="753.51" y1="735.0369" y2="735.0369"/><line style="stroke:#181818;stroke-width:1;" x1="757.51" x2="757.51" y1="734.0369" y2="742.0369"/></g><!--link user_completed_lessons to lesson--><g class="link" data-entity-1="ent0013" data-entity-2="ent0004" data-link-type="crowfoot" data-source-line="137" id="lnk28"><path codeLine="137" d="M854.52,411.0569 C854.52,442.1769 854.52,461.4869 854.52,501.3969" fill="none" id="user_completed_lessons-lesson" style="stroke:#181818;stroke-width:1;"/><line style="stroke:#181818;stroke-width:1;" x1="854.52" x2="848.52" y1="401.0569" y2="393.0569"/><line style="stroke:#181818;stroke-width:1;" x1="854.52" x2="860.52" y1="401.0569" y2="393.0569"/><line style="stroke:#181818;stroke-width:1;" x1="854.52" x2="854.52" y1="401.0569" y2="393.0569"/><ellipse cx="854.52" cy="407.0569" fill="none" rx="4" ry="4" style="stroke:#181818;stroke-width:1;"/><line style="stroke:#181818;stroke-width:1;" x1="858.52" x2="850.52" y1="505.3969" y2="505.3969"/><line style="stroke:#181818;stroke-width:1;" x1="858.52" x2="850.52" y1="502.3969" y2="502.3969"/><line style="stroke:#181818;stroke-width:1;" x1="854.52" x2="854.52" y1="501.3969" y2="509.3969"/></g><?plantuml-src ZLKzZzim3DtzAzGrG81sw9ArQuik1JeAYiIBUITBhaJbBcZklvUo7NygkKw9AP5yV7oaQZGWe6df8XfeZX1YLMUJng0jLF45NQk2QiGFTD-iYl4t6gh5bw-VPsVVqS6lImlYPw3QLuHaGRmu_sh1d41QKC6XErMVg8O6X7JUWQp0ySMBq108dr0hGk_4tsedq1m4Ee8JX6g_puOO4nYfw22C8Y1iWAsJ8qZj3Hn4f93Jx4IA4EGyZD0fn1GNjfqWnZnwYGxSqij2ZDujREyttCRhx0YomLFemCipqyU_iQjY-1ZZSoK2ta0dMfSoc7E4_5t8rUCeazEnFQkz3QZvsu36HjdCqxPqmRJLV8dWZIfnvePxcOATk63NqpmeHgaquPbjH--veMu2rySlWtEgUOYjmFaoDT-DEc1B7PKTtiTeXfQTbSLCi2dZ6eytel9DQu4Ffj05EUrAoX1j2hfMaUiXQCgYQTWD79ja_iU5JhmTySJNUtX7RovZjJKemreQl_yaI21NpEe0fNBKMQ5LHmihnHcmJ5zOEumuRwMKsRkJZ3mfE-zk94KfFfpBLk4cZWzShtGfhwFHUGEjOxcCRxhomGeejJ4JhBfKSrjoI78btsa2l2CMP1dCKx9srInek2kpxq4BOuTP8hGcfLREsAKiOpe-WwPfLhWjwzKokDrfSx-FFvxSmXHkLiGTKJoQrIo7SlOrGu4zMKZFtApSNtw7NbabomN5UkRdO4wHw4tzqoB9ly2qZWjd4jvQ313N9JnXYBGUE7uBLxOo0qAn5hdyUoteHcBSEh8NPByL_c_jC5_lrV8HVVVxlRyEWY-VTPql75slNTgoKv-z6bwZuVejI_yA3CO-_6ON3t4M8ro-TSDnxt20CkwfkSzoGop9s9vT9pnbpo7LdKRD4p--qd_-0m00?></g></svg>